<svg width="24" height="24" viewBox="0 0 24 24" fill="none" xmlns="http://www.w3.org/2000/svg">
  <path d="M20 18C21.1 18 21.99 17.1 21.99 16L22 6C22 4.9 21.1 4 20 4H4C2.9 4 2 4.9 2 6V16C2 17.1 2.9 18 4 18H0V20H24V18H20ZM4 6H20V16H4V6Z" fill="white"/>
  <path d="M13 14.47V9.53C13 9.24 12.76 9 12.47 9H11.53C11.24 9 11 9.24 11 9.53V14.47C11 14.76 11.24 15 11.53 15H12.47C12.76 15 13 14.76 13 14.47Z" fill="white"/>
  <path d="M14.97 12.53L17.17 10.33C17.41 10.09 17.41 9.71 17.17 9.47L16.53 8.83C16.29 8.59 15.91 8.59 15.67 8.83L13.47 11.03C13.23 11.27 13.23 11.65 13.47 11.89L15.67 14.09C15.91 14.33 16.29 14.33 16.53 14.09L17.17 13.45C17.41 13.21 17.41 12.83 17.17 12.59L14.97 10.39C14.73 10.15 14.73 9.77 14.97 9.53V9.53C15.21 9.29 15.59 9.29 15.83 9.53L18.03 11.73C18.27 11.97 18.27 12.35 18.03 12.59L15.83 14.79C15.59 15.03 15.21 15.03 14.97 14.79V14.79C14.73 14.55 14.73 14.17 14.97 13.93L17.17 11.73C17.41 11.49 17.41 11.11 17.17 10.87L14.97 8.67C14.73 8.43 14.35 8.43 14.11 8.67L13.47 9.31C13.23 9.55 13.23 9.93 13.47 10.17L14.97 11.67C15.21 11.91 15.21 12.29 14.97 12.53Z" fill="white"/>
  <path d="M10.53 15H9.53C9.24 15 9 14.76 9 14.47V9.53C9 9.24 9.24 9 9.53 9H10.53C10.82 9 11.06 9.24 11.06 9.53V14.47C11.06 14.76 10.82 15 10.53 15Z" fill="white"/>
  <path d="M8.53 15H7.53C7.24 15 7 14.76 7 14.47V9.53C7 9.24 7.24 9 7.53 9H8.53C8.82 9 9.06 9.24 9.06 9.53V14.47C9.06 14.76 8.82 15 8.53 15Z" fill="white"/>
</svg> 