<svg width="24" height="24" viewBox="0 0 24 24" fill="none" xmlns="http://www.w3.org/2000/svg">
  <path d="M21.79 18H23V20H1V18H2.21L3.21 17H1C0.45 17 0 16.55 0 16V4C0 3.45 0.45 3 1 3H3.21L21.21 21H21.79ZM5.21 15H19V7.21L12.79 13.41C12.61 13.59 12.35 13.69 12.08 13.69C11.81 13.69 11.55 13.59 11.37 13.41L9.37 11.41C9.19 11.23 9.09 10.98 9.09 10.71C9.09 10.44 9.19 10.19 9.37 10.01L15.58 3.79L5 3.79V15H5.21Z" fill="white"/>
  <path d="M22.21 21H23V18.79L22.21 18V21Z" fill="white"/>
  <path d="M22.21 2C21.76 2 21.4 2.37 21.4 2.83V3.79H19.6V2.83C19.6 2.37 19.24 2 18.79 2C18.34 2 17.98 2.37 17.98 2.83V3.79H16.19V2.83C16.19 2.37 15.83 2 15.38 2C14.93 2 14.56 2.37 14.56 2.83V3.79H13.38L22.96 13.38L23 4C23 2.9 22.66 2 22.21 2Z" fill="white"/>
</svg> 